<svg style="position: absolute; width: 0; height: 0; overflow: hidden;" version="1.1" xmlns="http://www.w3.org/2000/svg" xmlns:xlink="http://www.w3.org/1999/xlink">
<defs>
<symbol id="icon-bed" viewBox="0 0 32 32">
<title>double-bed</title>
<path class="path1" fill="#ff5859" d="M0 18.5v3.5h4v2.5h1v-2.5h22v2.5h1v-2.5h4v-3.5h-32zM31 21h-30v-1.5h30v1.5z"></path>
<path class="path2" fill="#ff5859" d="M28 18v-1.043c0-1.355-1.102-2.457-2.457-2.457h-19.086c-1.355 0-2.457 1.102-2.457 2.457v1.043h1v-1.043c0-0.803 0.654-1.457 1.457-1.457h19.086c0.803 0 1.457 0.654 1.457 1.457v1.043h1z"></path>
<path class="path3" fill="#ff5859" d="M3 8.5h26v9.5h1v-10.5h-28v10.5h1z"></path>
<path class="path4" fill="#ff5859" d="M15.5 14v-1.245c0-0.968-0.787-1.755-1.755-1.755h-4.99c-0.968 0-1.755 0.787-1.755 1.755v1.245h1v-1.245c0-0.416 0.339-0.755 0.755-0.755h4.99c0.416 0 0.755 0.339 0.755 0.755v1.245h1z"></path>
<path class="path5" fill="#ff5859" d="M25 14v-1.245c0-0.968-0.787-1.755-1.755-1.755h-4.99c-0.968 0-1.755 0.787-1.755 1.755v1.245h1v-1.245c0-0.416 0.339-0.755 0.755-0.755h4.99c0.416 0 0.755 0.339 0.755 0.755v1.245h1z"></path>
</symbol>
<symbol id="icon-suit" viewBox="0 0 32 32">
<title>suit</title>
<path class="path1" fill="#a05fbb" d="M10.989 6.601c0-0.286-0.232-0.518-0.518-0.518s-0.518 0.232-0.518 0.518v1.106c0 0.286 0.232 0.518 0.518 0.518s0.518-0.232 0.518-0.518v-1.106z"></path>
<path class="path2" fill="#a05fbb" d="M22.923 1.503l-1.458-0.263c0.043-0.125 0.037-0.263-0.019-0.385-0.066-0.143-0.193-0.248-0.345-0.286l-2.212-0.553c-0.263-0.066-0.532 0.082-0.618 0.339l-0.502 1.505-1.771 1.328-1.771-1.328-0.502-1.505c-0.086-0.257-0.355-0.405-0.618-0.339l-2.212 0.553c-0.153 0.038-0.28 0.143-0.345 0.286-0.056 0.122-0.062 0.26-0.019 0.385l-1.457 0.263c-0.774 0.14-1.336 0.812-1.336 1.598v12.004c0 0.408 0.227 0.776 0.592 0.958l1.62 0.81v0.233c0 0.286 0.232 0.518 0.518 0.518h0.587v13.857c0 0.286 0.232 0.518 0.518 0.518h2.765c0.266 0 0.488-0.201 0.516-0.465l1.143-11.050 1.143 11.050c0.027 0.264 0.25 0.465 0.516 0.465h2.765c0.286 0 0.518-0.232 0.518-0.518v-13.857h0.587c0.286 0 0.518-0.232 0.518-0.518v-0.233l1.619-0.81c0.365-0.183 0.592-0.55 0.592-0.958v-12.004c0-0.787-0.562-1.459-1.336-1.598zM15.689 4.251c0.092 0.069 0.202 0.104 0.311 0.104s0.219-0.035 0.311-0.104l0.884-0.663-0.581 1.743c-0.018 0.053-0.027 0.108-0.027 0.164v8.328h-1.175v-8.328c0-0.056-0.009-0.111-0.027-0.164l-0.581-1.743 0.884 0.663zM8.797 15.136c-0.012-0.006-0.019-0.018-0.019-0.031v-1.031l1.175 0.587v1.053l-1.156-0.578zM10.471 9.4c-0.286 0-0.518 0.232-0.518 0.518v3.584l-1.175-0.587v-9.814c0-0.284 0.203-0.528 0.483-0.578l1.752-0.316 0.538 1.076-0.437 0.874c-0.128 0.256-0.024 0.567 0.232 0.695s0.568 0.024 0.695-0.232l0.553-1.106c0.073-0.146 0.073-0.318 0-0.464l-0.76-1.52c-0.008-0.042-0.021-0.081-0.037-0.118l1.1-0.275 1.48 4.441v3.249l-1.23-2.459c-0.128-0.256-0.439-0.36-0.696-0.232s-0.36 0.439-0.232 0.696l2.157 4.314v3.195c0 1.239-1.008 2.246-2.246 2.246h-1.14v-6.669c0-0.286-0.232-0.518-0.518-0.518zM19.905 30.963h-1.779l-1.358-13.13c-0.042-0.401-0.364-0.693-0.768-0.693s-0.726 0.291-0.768 0.693l-1.358 13.13h-1.779v-13.339h0.035c1.634 0 2.992-1.2 3.242-2.765h1.258c0.249 1.565 1.608 2.765 3.242 2.765h0.035v13.339zM21.011 16.588h-1.14c-1.239 0-2.246-1.008-2.246-2.246v-3.195l2.157-4.314c0.128-0.256 0.024-0.567-0.232-0.696s-0.567-0.024-0.695 0.232l-1.23 2.459v-3.249l1.48-4.441 1.1 0.275c-0.017 0.037-0.029 0.076-0.037 0.118l-0.76 1.52c-0.073 0.146-0.073 0.318 0 0.464l0.553 1.106c0.128 0.256 0.439 0.36 0.695 0.232s0.36-0.439 0.232-0.695l-0.437-0.874 0.538-1.076 1.752 0.316c0.28 0.050 0.483 0.294 0.483 0.578v9.814l-1.175 0.587v-3.584c0-0.286-0.232-0.518-0.518-0.518s-0.518 0.232-0.518 0.518v6.669zM23.203 15.136l-1.156 0.578v-1.053l1.175-0.587v1.031c0 0.013-0.007 0.025-0.019 0.031z"></path>
<path class="path3" fill="#a05fbb" d="M21.529 8.225c0.286 0 0.518-0.232 0.518-0.518v-1.106c0-0.286-0.232-0.518-0.518-0.518s-0.518 0.232-0.518 0.518v1.106c0 0.286 0.232 0.518 0.518 0.518z"></path>
</symbol>
<symbol id="icon-evelope" viewBox="0 0 32 32">
<title>evelope</title>
<path class="path1" d="M29.333 26.667h-26.667c-1.471 0-2.667-1.196-2.667-2.667v-16c0-1.471 1.196-2.667 2.667-2.667h26.667c1.471 0 2.667 1.196 2.667 2.667v16c0 1.471-1.196 2.667-2.667 2.667zM2.667 6.667c-0.735 0-1.333 0.598-1.333 1.333v16c0 0.735 0.598 1.333 1.333 1.333h26.667c0.735 0 1.333-0.598 1.333-1.333v-16c0-0.735-0.598-1.333-1.333-1.333h-26.667z"></path>
<path class="path2" d="M16 19.461l-11.695-7.567c-0.309-0.201-0.398-0.613-0.198-0.922s0.613-0.397 0.922-0.198l10.971 7.099 10.971-7.099c0.309-0.199 0.722-0.111 0.922 0.198s0.111 0.721-0.198 0.922l-11.695 7.567z"></path>
<path class="path3" d="M4.001 22.667c-0.215 0-0.427-0.104-0.555-0.297-0.205-0.307-0.122-0.72 0.185-0.925l6-4c0.307-0.205 0.721-0.122 0.925 0.185s0.122 0.72-0.185 0.925l-6 4c-0.114 0.075-0.243 0.112-0.369 0.112z"></path>
<path class="path4" d="M27.999 22.667c-0.127 0-0.255-0.037-0.369-0.112l-6-4c-0.307-0.205-0.389-0.618-0.185-0.925s0.617-0.389 0.925-0.185l6 4c0.307 0.205 0.389 0.618 0.185 0.925-0.128 0.193-0.34 0.297-0.555 0.297z"></path>
</symbol>
<symbol id="icon-list" viewBox="0 0 32 32">
<title>guest-list</title>
<path class="path1" fill="#5788bb" d="M26 3.333h-5.418c-0.271-1.048-1.165-1.849-2.262-1.981-0.467-0.824-1.35-1.352-2.32-1.352s-1.853 0.528-2.32 1.352c-1.097 0.132-1.991 0.932-2.262 1.981h-5.418c-1.103 0-2 0.897-2 2v24.667c0 1.103 0.897 2 2 2h20c1.103 0 2-0.897 2-2v-24.667c0-1.103-0.897-2-2-2zM14 2.667h0.114c0.283 0 0.534-0.178 0.629-0.444 0.188-0.532 0.693-0.889 1.257-0.889s1.069 0.357 1.257 0.889c0.094 0.266 0.346 0.444 0.629 0.444h0.114c0.735 0 1.333 0.598 1.333 1.333s-0.598 1.333-1.333 1.333h-4c-0.735 0-1.333-0.598-1.333-1.333s0.598-1.333 1.333-1.333zM8.667 4.667h2.751c0.297 1.149 1.342 2 2.582 2h4c1.24 0 2.286-0.851 2.582-2h2.751v22.667h-14.667v-22.667zM26.667 30c0 0.368-0.299 0.667-0.667 0.667h-20c-0.368 0-0.667-0.299-0.667-0.667v-24.667c0-0.368 0.299-0.667 0.667-0.667h1.333v22.667c0 0.735 0.598 1.333 1.333 1.333h14.667c0.735 0 1.333-0.598 1.333-1.333v-22.667h1.333c0.368 0 0.667 0.299 0.667 0.667v24.667z"></path>
<path class="path2" fill="#5788bb" d="M13.333 10.667h5.333c0.368 0 0.667-0.299 0.667-0.667s-0.299-0.667-0.667-0.667h-5.333c-0.368 0-0.667 0.299-0.667 0.667s0.299 0.667 0.667 0.667z"></path>
<path class="path3" fill="#5788bb" d="M18.667 16h-5.333c-0.368 0-0.667 0.299-0.667 0.667s0.299 0.667 0.667 0.667h5.333c0.368 0 0.667-0.299 0.667-0.667s-0.299-0.667-0.667-0.667z"></path>
<path class="path4" fill="#5788bb" d="M17.2 20c-0.435 0-0.854 0.14-1.2 0.386-0.346-0.246-0.765-0.386-1.2-0.386-1.14 0-2.067 0.927-2.067 2.067 0 0.58 0.255 1.125 0.701 1.496l1.785 1.488c0.219 0.182 0.496 0.283 0.78 0.283s0.562-0.1 0.78-0.283l1.785-1.488c0.445-0.371 0.701-0.917 0.701-1.496 0-1.14-0.927-2.067-2.067-2.067zM17.712 22.539l-1.712 1.427-1.712-1.427c-0.14-0.117-0.221-0.289-0.221-0.472 0-0.404 0.329-0.733 0.733-0.733 0.26 0 0.495 0.133 0.629 0.356 0.121 0.2 0.337 0.323 0.571 0.323s0.45-0.122 0.571-0.323c0.134-0.223 0.369-0.356 0.629-0.356 0.404 0 0.733 0.329 0.733 0.733 0 0.183-0.081 0.355-0.221 0.472z"></path>
<path class="path5" fill="#5788bb" d="M20.667 12.667h-9.333c-0.368 0-0.667 0.299-0.667 0.667s0.299 0.667 0.667 0.667h9.333c0.368 0 0.667-0.299 0.667-0.667s-0.299-0.667-0.667-0.667z"></path>
</symbol>
<symbol id="icon-rings" viewBox="0 0 32 32">
<title>interlocking-rings</title>
<path class="path1" fill="#eb974e" d="M9.76 27.81c1.946 0 3.805-0.566 5.389-1.619-0.215-0.188-0.424-0.386-0.629-0.594-0.462-0.473-0.876-0.983-1.24-1.522-1.035 0.608-2.238 0.955-3.523 0.955-3.846 0-6.977-3.13-6.977-6.977 0-2.96 1.855-5.497 4.461-6.508l-2.012-2.14c-0.865 0.452-1.664 1.039-2.373 1.748-1.841 1.841-2.856 4.291-2.856 6.897s1.015 5.055 2.856 6.897c1.845 1.848 4.298 2.863 6.904 2.863z"></path>
<path class="path2" fill="#eb974e" d="M18.665 12.070c1.049-0.629 2.272-0.994 3.582-0.994 3.846 0 6.977 3.13 6.977 6.977s-3.131 6.977-6.977 6.977c-1.758 0-3.499-0.691-4.781-1.897-1.386-1.306-2.196-3.176-2.196-5.080 0-0.608 0.080-1.202 0.226-1.765-0.153-0.5-0.372-0.976-0.65-1.425-0.334-0.528-0.743-1.001-1.216-1.4-0.743 1.397-1.14 2.96-1.14 4.586 0 2.811 1.254 5.556 3.388 7.39 1.689 1.456 3.888 2.304 6.115 2.363 0.083 0.003 0.167 0.003 0.254 0.003 2.606 0 5.055-1.015 6.897-2.856s2.856-4.291 2.856-6.897-1.015-5.055-2.856-6.897-4.291-2.856-6.897-2.856c-1.97 0-3.85 0.58-5.448 1.661 0.709 0.611 1.338 1.324 1.866 2.109z"></path>
<path class="path3" fill="#eb974e" d="M15.611 10.253c-0.417-0.316-0.862-0.601-1.331-0.844l-2.005 2.137c0.059 0.024 0.122 0.049 0.181 0.073 1.47 0.618 2.71 1.744 3.461 3.151 0.806 1.511 1.028 3.315 0.615 4.975l0.219 0.539c0.361 0.886 0.938 1.675 1.661 2.293 0.577-1.098 0.935-2.297 1.060-3.547 0.031-0.323 0.049-0.65 0.049-0.973-0.003-3.051-1.504-5.976-3.909-7.804z"></path>
<path class="path4" fill="#eb974e" d="M9.124 12.126c0.17 0.181 0.403 0.274 0.632 0.274s0.462-0.090 0.632-0.274l4.333-4.604c0.271-0.288 0.313-0.726 0.101-1.060l-1.188-1.869c-0.16-0.25-0.434-0.403-0.733-0.403h-6.282c-0.295 0-0.573 0.153-0.733 0.403l-1.188 1.869c-0.212 0.334-0.174 0.771 0.101 1.060l4.326 4.604z"></path>
</symbol>
<symbol id="icon-mic" viewBox="0 0 32 32">
<title>microphone</title>
<path class="path1" fill="#e17a92" d="M8.959 13.7v-5.063c0-3.883 3.159-7.041 7.041-7.041 0.706 0 1.403 0.105 2.074 0.314 0 0 0 0 0.001 0 0.589 0.183 1.154 0.444 1.678 0.777 2.059 1.306 3.288 3.53 3.288 5.951v5.004c0 0.365-0.296 0.66-0.66 0.66s-0.66-0.296-0.66-0.66v-5.004c0-1.966-1-3.774-2.675-4.836-0.426-0.27-0.885-0.482-1.363-0.631-0 0-0-0-0-0-0.544-0.169-1.11-0.254-1.683-0.254-3.154 0-5.721 2.566-5.721 5.721v5.063c0 0.365-0.296 0.66-0.66 0.66s-0.66-0.296-0.66-0.66zM20.265 1.241c1.342 0.728 2.454 1.813 3.217 3.137 0.708 1.231 1.083 2.631 1.083 4.051 0 0.365 0.296 0.66 0.66 0.66s0.66-0.296 0.66-0.66c0-1.65-0.435-3.279-1.259-4.71-0.884-1.536-2.175-2.795-3.731-3.639-0.32-0.174-0.721-0.055-0.895 0.265s-0.055 0.721 0.265 0.895zM18.675 10.138h-5.349c-0.365 0-0.66 0.296-0.66 0.66s0.296 0.66 0.66 0.66h5.349c0.365 0 0.66-0.296 0.66-0.66s-0.296-0.66-0.66-0.66zM16.66 27.209v3.471h3.183c0.365 0 0.66 0.296 0.66 0.66s-0.296 0.66-0.66 0.66h-3.829c-0.005 0-0.009 0-0.014 0s-0.009-0-0.014-0h-3.829c-0.365 0-0.66-0.296-0.66-0.66s0.296-0.66 0.66-0.66h3.183v-3.471c-5.528-0.342-9.921-4.948-9.921-10.56 0-0.365 0.296-0.66 0.66-0.66h19.841c0.365 0 0.66 0.296 0.66 0.66 0 5.613-4.392 10.219-9.921 10.56zM25.237 17.309h-2.229c-0.159 1.649-0.893 3.18-2.097 4.355-1.326 1.294-3.070 2.006-4.911 2.006-2.666 0-5.15-1.556-6.329-3.964-0.16-0.328-0.025-0.723 0.303-0.883s0.723-0.025 0.883 0.303c0.959 1.958 2.977 3.224 5.143 3.224 2.894 0 5.338-2.217 5.68-5.041h-14.917c0.34 4.799 4.353 8.6 9.237 8.6s8.898-3.801 9.237-8.6zM18.675 13.040h-5.349c-0.365 0-0.66 0.296-0.66 0.66s0.296 0.66 0.66 0.66h5.349c0.365 0 0.66-0.296 0.66-0.66s-0.296-0.66-0.66-0.66zM18.675 7.236h-5.349c-0.365 0-0.66 0.296-0.66 0.66s0.296 0.66 0.66 0.66h5.349c0.365 0 0.66-0.296 0.66-0.66s-0.296-0.66-0.66-0.66z"></path>
</symbol>
<symbol id="icon-phone" viewBox="0 0 32 32">
<title>phone-ringing</title>
<path class="path1" d="M5.13 8.563l8.17 20.348c0.352 0.876 1.346 1.302 2.223 0.949l10.667-4.283c0.876-0.352 1.301-1.347 0.95-2.223l-8.17-20.348c-0.352-0.876-1.347-1.301-2.224-0.95l-10.667 4.283c-0.876 0.352-1.3 1.347-0.948 2.224zM20.441 26.761c-0.552 0.222-1.179-0.045-1.401-0.597-0.221-0.551 0.046-1.178 0.599-1.4 0.551-0.221 1.178 0.046 1.399 0.598s-0.046 1.178-0.597 1.399zM8.121 8.56l8.684-3.486c0.241-0.097 0.515 0.019 0.613 0.261l6.289 15.665c0.097 0.241-0.020 0.516-0.262 0.612l-8.684 3.486c-0.242 0.096-0.516-0.020-0.612-0.262l-6.289-15.665c-0.098-0.241 0.019-0.515 0.26-0.612z"></path>
<path class="path2" d="M7.182 4.645c-0.006-0.057-0.018-0.112-0.040-0.166-0.097-0.241-0.346-0.392-0.606-0.367-2.516 0.245-4.364 2.489-4.121 5.006 0.031 0.316 0.33 0.562 0.647 0.531 0.157-0.015 0.3-0.091 0.4-0.213 0.101-0.123 0.147-0.277 0.132-0.434-0.087-0.901 0.182-1.787 0.759-2.488 0.579-0.703 1.394-1.138 2.296-1.224 0.324-0.031 0.563-0.32 0.533-0.646z"></path>
<path class="path3" d="M6.301 2.967c0.324-0.032 0.563-0.321 0.531-0.645-0.005-0.057-0.018-0.112-0.039-0.165-0.097-0.242-0.345-0.392-0.606-0.367-1.818 0.176-3.459 1.051-4.623 2.466-1.163 1.414-1.708 3.194-1.531 5.013 0.033 0.315 0.331 0.56 0.645 0.53 0.157-0.015 0.3-0.090 0.4-0.212 0.101-0.122 0.148-0.276 0.133-0.434-0.301-3.11 1.982-5.885 5.092-6.187z"></path>
<path class="path4" d="M25.391 27.514c0.013 0.056 0.034 0.108 0.064 0.158 0.131 0.224 0.399 0.337 0.653 0.276 2.454-0.605 3.96-3.092 3.355-5.548-0.076-0.308-0.407-0.508-0.717-0.432-0.153 0.038-0.283 0.134-0.365 0.268-0.083 0.137-0.105 0.296-0.068 0.449 0.216 0.879 0.078 1.794-0.393 2.572s-1.215 1.327-2.095 1.543c-0.317 0.078-0.511 0.398-0.434 0.715z"></path>
<path class="path5" d="M31.085 21.476c-0.154 0.038-0.283 0.133-0.366 0.268-0.081 0.136-0.107 0.294-0.069 0.449 0.748 3.033-1.112 6.108-4.145 6.855-0.316 0.079-0.51 0.399-0.433 0.716 0.012 0.056 0.033 0.107 0.062 0.157 0.131 0.224 0.4 0.338 0.654 0.276 1.773-0.437 3.271-1.539 4.219-3.107 0.947-1.567 1.229-3.406 0.792-5.182-0.077-0.306-0.408-0.506-0.714-0.431z"></path>
</symbol>
<symbol id="icon-theatre" viewBox="0 0 32 32">
<title>theatre</title>
<path class="path1" fill="#29c689" d="M8.090 16.315c-1.137 0.335-2.054 0.723-2.452 1.040-0.119 0.095-0.262 0.141-0.403 0.141-0.191 0-0.381-0.084-0.509-0.246-0.223-0.281-0.176-0.69 0.105-0.913 0.727-0.576 2.124-1.042 2.893-1.268 0.344-0.102 0.705 0.095 0.806 0.44s-0.095 0.705-0.44 0.807zM16.886 20.592c0.333 1.712 0.009 3.275-0.937 4.52-0.834 1.097-2.089 1.856-3.535 2.137-0.4 0.078-0.801 0.116-1.196 0.116-1.032 0-2.026-0.263-2.882-0.771-1.344-0.799-2.231-2.126-2.564-3.838l-0.006-0.034c-0.057-0.298 0.099-0.596 0.377-0.718 0.474-0.208 1.013-0.41 1.603-0.603 0.186-0.061 0.39-0.034 0.554 0.072 2.238 1.447 4.231 1.059 5.763-1.122 0.113-0.16 0.291-0.261 0.486-0.275 0.618-0.043 1.194-0.057 1.712-0.043 0.304 0.009 0.561 0.227 0.619 0.525l0.006 0.032-0 0zM15.684 21.329c-0.238 0.003-0.487 0.011-0.746 0.026-1.15 1.515-2.559 2.286-4.092 2.286-0.957 0-1.962-0.3-2.983-0.908-0.245 0.084-0.48 0.17-0.701 0.256 0.738 2.572 3.058 3.364 5.004 2.985s3.799-1.983 3.518-4.645zM12.32 15.491c1.179-0.116 2.175-0.1 2.663 0.044 0.061 0.018 0.123 0.027 0.184 0.027 0.281 0 0.54-0.183 0.623-0.466 0.101-0.344-0.096-0.705-0.44-0.806-0.845-0.248-2.184-0.186-3.158-0.090-0.357 0.035-0.618 0.353-0.583 0.71s0.354 0.618 0.71 0.583zM19.964 7.204c0.021 0.002 0.041 0.003 0.062 0.003 0.331 0 0.614-0.252 0.646-0.589 0.034-0.357-0.229-0.674-0.586-0.708-1.18-0.111-2.154-0.317-2.606-0.552-0.319-0.165-0.711-0.041-0.876 0.278s-0.041 0.71 0.278 0.876c0.823 0.427 2.284 0.617 3.082 0.692zM24.455 7.207c0.020 0 0.041-0.001 0.062-0.003 0.975-0.092 2.3-0.286 3.082-0.692 0.318-0.165 0.443-0.557 0.278-0.876s-0.557-0.443-0.876-0.278c-0.452 0.234-1.426 0.441-2.606 0.552-0.357 0.034-0.619 0.35-0.586 0.708 0.032 0.336 0.315 0.589 0.646 0.589zM20.922 19.879c0.884 4.54-2.332 9.265-7.648 11.236-0.066 0.025-0.136 0.038-0.206 0.040-0.144 0.004-0.287 0.006-0.43 0.006-5.476 0-10.013-3.126-10.875-7.551l-1.741-8.942c-0.173-0.889 0.698-1.707 2.741-2.575 1.66-0.705 3.913-1.354 6.344-1.827s4.763-0.719 6.566-0.687c2.22 0.038 3.334 0.469 3.507 1.358l1.741 8.942zM19.647 20.127l-1.729-8.881c-0.163-0.124-0.875-0.379-2.668-0.371-1.655 0.011-3.748 0.247-5.894 0.665s-4.174 0.984-5.712 1.595c-1.666 0.662-2.23 1.169-2.334 1.345l1.729 8.881c0.756 3.885 4.905 6.605 9.885 6.497 4.657-1.769 7.481-5.847 6.724-9.732zM28.817 1.42c-1.764-0.375-4.099-0.581-6.577-0.581s-4.813 0.206-6.577 0.581c-2.171 0.461-3.183 1.098-3.183 2.004v3.984c0 0.359 0.291 0.649 0.649 0.649s0.649-0.291 0.649-0.649v-3.922c0.136-0.153 0.786-0.543 2.548-0.874 1.627-0.305 3.726-0.474 5.912-0.474s4.285 0.168 5.912 0.474c1.762 0.331 2.413 0.721 2.548 0.874v9.048c0 3.647-2.966 6.875-7.38 8.033-0.347 0.091-0.555 0.446-0.464 0.793 0.076 0.292 0.34 0.485 0.628 0.485 0.055 0 0.11-0.007 0.165-0.021 2.383-0.625 4.441-1.82 5.952-3.455 1.569-1.698 2.398-3.715 2.398-5.834v-9.11c-0-0.906-1.012-1.542-3.183-2.004zM25.279 16.529c0.026 0 0.053-0.002 0.080-0.005 0.615-0.076 1.183-0.172 1.688-0.285 0.297-0.066 0.508-0.33 0.508-0.634v-0.033c0-1.705-0.593-3.155-1.716-4.193-1.15-1.064-2.767-1.6-4.434-1.47-0.358 0.028-0.625 0.34-0.597 0.698s0.34 0.626 0.698 0.597c1.309-0.102 2.566 0.309 3.451 1.128 0.743 0.687 1.18 1.629 1.278 2.746-0.234 0.043-0.48 0.082-0.737 0.118-1.034-0.925-2.127-1.439-3.253-1.529-0.357-0.028-0.671 0.238-0.699 0.596s0.238 0.671 0.596 0.699c0.903 0.072 1.808 0.538 2.688 1.385 0.122 0.117 0.283 0.181 0.45 0.181z"></path>
</symbol>
</defs>
</svg>
